# xmcd
#
# Track frame offsets: 
#        150
#        13417
#        28760
#        57922
#        71835
#        83712
#        96380
#        108355
#        125997
#        138665
#        149205
#        162922
#        179500
#        193800
#        204165
#        215725
#        230245
#        244645
#        254975
#        277055
#        288035
#        302730
#        326265
#
# Disc length: 4506 seconds
#
# Revision: 2
# Processed by: cddbd v1.5.2PL0 Copyright (c) Steve Scherf et al.
# Submitted via: ExactAudioCopyFreeDBPlugin 1.0
#
DISCID=7b119817
DTITLE=Various Artist - The Blue Horizon Story CD2
DYEAR=2006
DGENRE=Blues
TTITLE0=Peter Green's Fleetwood Mac - I Believe My Time Ain't Long
TTITLE1=Aynsley Dunbar Retaliation - Warning
TTITLE2=Chicken Shack - When My Left Eye Jumpin'
TTITLE3=Arthur K. Adams - She Drives Me Out Of My Mind
TTITLE4=Eddie Boyd - The Big Boat
TTITLE5=Fleetwood Mac - Black Magic Woman
TTITLE6=Roosevelt Holts - Prison Bound Blues
TTITLE7=Fleetwood Mac - Need Your Love So Bad
TTITLE8=Champion Jack Dupree with Stan Webb - How I'm Doing It
TTITLE9=Otis Spann - Can't Do Me No Good
TTITLE10=B.B. King - The Woman I Love
TTITLE11=Curtis Jones - You Don't Have To Go
TTITLE12=Fleetwood Mac - Albatross
TTITLE13=Guitar Crusher - Since My Baby Hit The Numbers
TTITLE14=Garfield Love - Next Time You See Me
TTITLE15=Johnny Shines - Solid Gold
TTITLE16=Sunnyland Slim - Layin' In My Cell, Sleepin'
TTITLE17=Bobby Parker - It's Hard But It's Fair
TTITLE18=Bobby Parker - I Couldn't Quit my Baby
TTITLE19=Champion Jack Dupree - Stumbling Block
TTITLE20=Chicken Shack - I'd Rather Go Blind
TTITLE21=Otis Spann - Temperature Is Rising (98,8° F)
TTITLE22=Otis Rush and His Band - All Your Love
EXTD=
EXTT0=
EXTT1=
EXTT2=
EXTT3=
EXTT4=
EXTT5=
EXTT6=
EXTT7=
EXTT8=
EXTT9=
EXTT10=
EXTT11=
EXTT12=
EXTT13=
EXTT14=
EXTT15=
EXTT16=
EXTT17=
EXTT18=
EXTT19=
EXTT20=
EXTT21=
EXTT22=
PLAYORDER=
